<svg version="1.1" id="Layer_1" xmlns="http://www.w3.org/2000/svg" xmlns:xlink="http://www.w3.org/1999/xlink" x="0px" y="0px"
	 width="100%" viewBox="0 0 224 224" enable-background="new 0 0 224 224" xml:space="preserve">
<path fill="#FFFFFF" opacity="1.000000" stroke="none" 
	d="
M130.000000,225.000000 
	C86.666672,225.000000 43.833340,225.000000 1.000006,225.000000 
	C1.000004,150.333344 1.000004,75.666679 1.000002,1.000016 
	C75.666656,1.000010 150.333313,1.000010 224.999969,1.000005 
	C224.999985,75.666649 224.999985,150.333298 225.000000,224.999969 
	C193.500000,225.000000 162.000000,225.000000 130.000000,225.000000 
M96.553253,146.216537 
	C96.564606,146.592392 96.575958,146.968262 96.587296,147.344116 
	C96.748062,146.919769 96.908829,146.495407 97.545647,146.011261 
	C97.811638,145.871506 98.077629,145.731766 98.343620,145.592026 
	C97.882515,145.709625 97.421402,145.827209 96.553253,146.216537 
M124.490685,164.679260 
	C124.586708,164.076370 124.682732,163.473480 124.778755,162.870590 
	C124.569977,162.845123 124.361191,162.819672 124.152405,162.794205 
	C124.088882,163.519821 124.025368,164.245422 123.695114,165.103577 
	C123.806946,165.082382 123.918770,165.061188 124.490685,164.679260 
M80.444145,165.692169 
	C80.851868,165.439606 81.259598,165.187042 81.667328,164.934479 
	C81.227547,164.610779 80.787773,164.287079 79.648331,163.982437 
	C79.770226,164.460007 79.892120,164.937592 80.444145,165.692169 
M128.559021,147.960129 
	C128.600555,147.085815 128.642075,146.211517 128.683594,145.337204 
	C128.242920,145.390656 127.802238,145.444122 127.361557,145.497574 
	C127.561096,146.331100 127.760635,147.164612 127.372986,148.078125 
	C127.565636,148.734543 127.758293,149.390976 128.075760,150.696045 
	C130.071167,150.484085 132.066559,150.272141 134.673080,149.935852 
	C135.089310,149.307098 135.505539,148.678360 135.921753,148.049606 
	C135.601959,147.892456 135.282150,147.735291 134.962341,147.578125 
	C134.617233,148.361313 134.272125,149.144485 133.089661,149.969635 
	C131.412415,149.961105 129.735168,149.952576 128.019104,149.310516 
	C128.014221,148.886978 128.009354,148.463440 128.559021,147.960129 
M164.004745,144.761719 
	C164.108322,145.518311 164.211899,146.274887 164.315475,147.031479 
	C164.579437,146.948303 164.843399,146.865143 165.107361,146.781967 
	C164.773056,145.881744 164.438751,144.981506 164.030807,143.326340 
	C164.040588,142.568130 164.050369,141.809906 164.401413,140.934387 
	C164.254745,140.940918 164.108063,140.947464 163.297104,141.092819 
	C163.539871,142.100357 163.782639,143.107895 164.004745,144.761719 
M93.811188,165.231964 
	C94.333641,165.163391 94.856087,165.094803 95.941284,165.391556 
	C97.880127,165.282181 99.818962,165.172806 102.461800,165.042480 
	C103.988884,163.968185 105.515968,162.893890 107.043053,161.819595 
	C106.855110,161.487335 106.667168,161.155075 106.479218,160.822830 
	C104.984131,161.541718 103.489037,162.260620 101.996193,162.408203 
	C100.976082,161.329178 99.955971,160.250153 98.223183,158.417282 
	C97.711639,160.565979 97.502472,161.967651 96.997902,163.253433 
	C96.841309,163.652466 95.883110,163.736954 94.772537,163.777390 
	C94.504784,163.543564 94.237038,163.309753 93.988121,162.474030 
	C93.826874,161.949081 93.665627,161.424118 93.504387,160.899170 
	C93.326630,161.298752 93.148865,161.698349 92.392929,162.161896 
	C92.585785,163.100372 92.778648,164.038849 92.663399,165.110016 
	C92.786049,165.085861 92.908691,165.061707 93.811188,165.231964 
M70.061737,139.591644 
	C70.371498,139.910538 70.681267,140.229446 70.991035,140.548340 
	C71.174507,140.337936 71.357986,140.127518 71.541451,139.917099 
	C71.035965,139.603439 70.530479,139.289780 69.912712,138.314926 
	C68.911682,138.035355 67.910645,137.755798 66.909615,137.476227 
	C66.850479,137.892746 66.791344,138.309265 66.732216,138.725784 
	C67.813034,138.826050 68.893852,138.926331 70.061737,139.591644 
M157.904587,143.652374 
	C157.804031,143.614059 157.703476,143.575729 157.602921,143.537415 
	C157.709457,143.708527 157.815994,143.879639 157.964035,144.715530 
	C158.007721,145.503311 158.051422,146.291077 158.105286,147.262405 
	C160.741394,144.895248 160.741394,144.895248 157.904587,143.652374 
M118.297089,162.913544 
	C117.405846,162.741837 116.514610,162.570114 114.355324,162.154083 
	C116.222008,163.937408 117.164970,164.838257 118.589035,166.198730 
	C118.817474,164.664597 118.934502,163.878647 119.549309,163.446716 
	C119.999535,164.190689 120.449768,164.934662 120.899994,165.678650 
	C121.236412,165.525696 121.572823,165.372742 121.909233,165.219788 
	C121.251740,163.963135 120.594238,162.706467 119.936745,161.449814 
	C119.606621,161.948669 119.276505,162.447540 118.297089,162.913544 
M88.016968,164.502853 
	C88.140953,164.773331 88.264938,165.043808 88.388924,165.314285 
	C88.267509,164.870499 88.146088,164.426727 88.315346,163.513779 
	C88.734352,162.922791 89.153366,162.331818 89.572380,161.740829 
	C88.334595,161.616959 86.700096,160.953873 85.956146,161.501221 
	C84.951729,162.240219 84.632088,163.909943 83.600723,166.045639 
	C85.789581,165.035294 86.881248,164.531387 88.016968,164.502853 
M67.990967,163.731781 
	C68.326843,164.331482 68.662727,164.931168 68.998604,165.530869 
	C69.277657,165.233185 69.821373,164.699982 69.796837,164.672409 
	C69.254639,164.063080 68.649590,163.509674 67.908569,162.268265 
	C65.851738,161.452774 63.794910,160.637283 61.916275,159.892441 
	C61.039268,161.132843 60.039215,162.547287 59.011650,163.225128 
	C58.735523,162.047775 58.459396,160.870438 58.183270,159.693085 
	C57.625366,159.958176 57.067467,160.223251 56.509567,160.488327 
	C57.327148,161.670654 58.144730,162.852982 59.064632,164.644958 
	C62.145058,164.797226 65.741104,167.832596 67.990967,163.731781 
M137.744400,162.726639 
	C136.286575,162.398453 134.828766,162.070251 133.370941,161.742065 
	C133.323959,162.541565 133.276993,163.341049 133.230011,164.140533 
	C134.542572,164.151459 135.855133,164.162369 137.806427,164.726074 
	C144.364182,165.143097 150.921936,165.560135 157.920059,166.005157 
	C157.346115,163.743500 156.995712,162.362717 156.618011,160.874374 
	C153.968536,163.585068 145.540100,163.695755 144.162964,162.223480 
	C141.584747,162.627319 139.719437,162.919510 137.744400,162.726639 
M89.476418,172.577713 
	C96.694893,185.575745 103.913361,198.573776 111.642448,212.491257 
	C119.687149,197.781982 127.288048,183.884171 135.078400,169.385864 
	C134.717331,169.257446 134.356247,169.129028 133.074600,168.811630 
	C118.716782,168.878647 104.358971,168.945648 89.294685,168.849167 
	C89.290962,169.875076 89.287239,170.900986 89.476418,172.577713 
M174.925858,62.729794 
	C174.866409,62.504082 174.757095,62.305889 174.208237,61.431011 
	C171.474884,51.136909 165.899246,42.593002 157.777939,35.830677 
	C138.888733,20.102304 117.185104,16.112705 93.621582,21.453333 
	C79.624100,24.625835 67.598091,31.578541 58.539963,42.900291 
	C48.472267,55.483891 44.289669,69.753456 49.599281,85.378922 
	C54.729233,100.475677 60.939236,115.205429 66.730858,130.241928 
	C71.280014,128.207321 74.447334,126.761284 77.637932,125.368584 
	C97.072945,116.885147 116.688652,115.313248 136.678116,123.553719 
	C142.759125,126.060562 149.049515,128.059509 155.655823,130.439438 
	C159.687057,121.182137 163.715302,112.454529 167.310364,103.551979 
	C172.541962,90.596718 177.893829,77.596779 174.925858,62.729794 
M89.500000,154.978271 
	C79.209068,154.978271 68.918137,154.978271 58.627201,154.978271 
	C58.638573,155.469955 58.649944,155.961655 58.661316,156.453339 
	C102.211685,156.453339 145.762054,156.453339 189.312439,156.453339 
	C189.315262,155.961624 189.318085,155.469910 189.320908,154.978195 
	C156.380615,154.978195 123.440308,154.978195 89.500000,154.978271 
M175.705582,162.946564 
	C175.850876,162.867401 175.992126,162.736572 176.142700,162.724777 
	C176.271881,162.714645 176.527252,162.837189 176.529343,162.906998 
	C176.555984,163.791687 176.546875,164.677444 176.546875,165.354462 
	C179.714615,165.354462 182.667603,165.354462 185.320343,165.354462 
	C184.929977,163.456558 184.572479,161.718430 184.272552,160.260223 
	C180.625900,160.260223 176.609711,160.260223 171.832626,160.260223 
	C172.025192,161.359222 172.301300,162.935013 172.577393,164.510803 
	C173.486252,164.144257 174.395111,163.777710 175.705582,162.946564 
M59.955551,146.062820 
	C59.512791,141.962540 59.070026,137.862259 58.627262,133.761963 
	C58.094162,133.811707 57.561062,133.861465 57.027962,133.911209 
	C57.027962,137.829041 56.938091,141.751755 57.149345,145.658173 
	C57.173893,146.112122 58.866505,146.475861 59.955551,146.062820 
M73.997574,142.632767 
	C74.228638,144.382111 74.459702,146.131470 74.819092,148.852280 
	C78.087898,143.776199 77.622101,139.647995 74.201714,137.799194 
	C74.130058,139.196365 74.063812,140.488083 73.997574,142.632767 
M163.597214,165.880234 
	C165.699524,164.815826 167.801834,163.751404 170.787506,162.239746 
	C168.051514,161.066956 166.332993,160.330307 164.101685,159.373856 
	C163.695770,161.558929 163.306427,163.654816 163.597214,165.880234 
M132.586258,128.578033 
	C136.259201,129.570999 139.932144,130.563965 144.908539,131.909302 
	C140.820755,127.692032 135.427048,126.406982 132.586258,128.578033 
M108.506111,123.003380 
	C109.958488,122.797409 111.410873,122.591431 112.863251,122.385460 
	C112.829071,121.854164 112.794884,121.322861 112.760704,120.791565 
	C109.951294,120.791565 107.141884,120.791565 104.332466,120.791565 
	C104.248070,121.232857 104.163673,121.674149 104.079269,122.115440 
	C105.267693,122.411179 106.456108,122.706909 108.506111,123.003380 
M128.769638,160.777054 
	C127.939011,162.196411 127.108383,163.615768 126.277748,165.035126 
	C126.658592,165.389084 127.039436,165.743042 127.420280,166.097000 
	C128.517410,165.527908 130.100616,165.202148 130.548248,164.307938 
	C130.870117,163.664963 129.676514,162.263382 128.769638,160.777054 
M116.459641,123.466270 
	C118.304100,123.963531 120.148552,124.460793 121.993011,124.958054 
	C122.194489,124.446503 122.395966,123.934944 122.597443,123.423393 
	C120.610153,122.662079 118.622856,121.900772 116.635567,121.139458 
	C116.440536,121.727005 116.245506,122.314560 116.459641,123.466270 
M178.642334,143.778839 
	C177.281204,143.589737 175.920090,143.400620 174.558960,143.211517 
	C174.487488,143.552048 174.416000,143.892578 174.344513,144.233109 
	C175.662354,145.299973 176.980194,146.366837 178.891586,147.914215 
	C178.891586,146.256699 178.891586,145.350342 178.642334,143.778839 
M98.593880,124.037224 
	C99.420166,123.521133 100.246445,123.005043 101.072731,122.488953 
	C99.421440,121.798866 98.233932,121.844887 97.150024,122.203789 
	C96.417671,122.446274 95.831253,123.129532 95.179558,123.615639 
	C96.085228,123.795998 96.990906,123.976357 98.593880,124.037224 
M109.998779,141.268173 
	C109.998779,143.225235 109.998779,145.182312 109.998779,147.139374 
	C110.223564,147.133759 110.448357,147.128128 110.673141,147.122513 
	C110.673141,143.129730 110.673141,139.136932 110.673141,135.144150 
	C110.448357,135.141464 110.223564,135.138779 109.998779,135.136093 
	C109.998779,136.897430 109.998779,138.658783 109.998779,141.268173 
M188.132690,164.454147 
	C188.567413,164.749283 189.002121,165.044418 189.436844,165.339554 
	C189.559494,163.417801 189.682159,161.496063 189.804825,159.574310 
	C189.434723,159.602310 189.064636,159.630295 188.694550,159.658295 
	C188.529495,161.027313 188.364441,162.396347 188.132690,164.454147 
M147.999069,139.341034 
	C147.999069,141.871948 147.999069,144.402863 147.999069,146.933777 
	C148.445023,146.897415 148.890961,146.861053 149.336914,146.824692 
	C148.907288,144.087204 148.477661,141.349716 147.999069,139.341034 
M181.999878,141.066269 
	C181.999878,142.978394 181.999878,144.890518 181.999878,146.802643 
	C182.825119,144.298431 182.826706,141.866959 182.799713,139.435806 
	C182.799484,139.414230 182.262619,139.330185 182.237061,139.388870 
	C182.111511,139.677170 182.074249,140.003937 181.999878,141.066269 
M135.718811,137.771118 
	C134.641296,137.936203 133.563782,138.101288 132.486282,138.266373 
	C132.700485,138.798584 132.914688,139.330795 133.128891,139.863007 
	C134.001205,139.378998 134.873505,138.895004 135.718811,137.771118 
M170.934067,147.400558 
	C171.116623,146.550095 171.299179,145.699631 171.481735,144.849167 
	C170.956146,144.839050 170.430557,144.828949 169.904953,144.818832 
	C170.067780,145.773483 170.230621,146.728149 170.934067,147.400558 
M90.265999,144.351776 
	C90.638489,144.993530 91.010979,145.635284 91.383469,146.277039 
	C91.700081,145.869675 92.016701,145.462311 92.333313,145.054947 
	C91.644341,144.617050 90.955360,144.179153 90.265999,144.351776 
M158.137634,138.185440 
	C158.308334,138.994064 158.479050,139.802673 158.649750,140.611298 
	C159.061646,140.455826 159.473557,140.300369 159.885452,140.144897 
	C159.435699,139.339584 158.985962,138.534256 158.137634,138.185440 
M96.467972,141.669144 
	C96.962570,142.036057 97.457176,142.402969 97.951775,142.769882 
	C98.155632,142.408234 98.359482,142.046585 98.563332,141.684937 
	C98.014023,141.534943 97.464706,141.384949 96.467972,141.669144 
M170.691025,141.028564 
	C169.432343,141.028564 168.173676,141.028564 166.914993,141.028564 
	C166.930252,141.328125 166.945496,141.627701 166.960754,141.927261 
	C168.127075,141.822220 169.293411,141.717178 170.691025,141.028564 
M63.709362,138.453217 
	C63.664070,139.104340 63.618778,139.755478 63.573483,140.406601 
	C63.849743,140.409927 64.125999,140.413269 64.402260,140.416595 
	C64.373337,139.764267 64.344414,139.111954 63.709362,138.453217 
M153.981522,140.198090 
	C153.932953,139.425827 153.884384,138.653549 153.835831,137.881287 
	C153.529175,137.967239 153.222534,138.053192 152.915878,138.139145 
	C153.243896,139.030716 153.571915,139.922287 153.981522,140.198090 
M75.734383,133.902252 
	C75.233093,133.957123 74.731804,134.011993 74.230515,134.066864 
	C74.346375,134.515610 74.462234,134.964371 74.578079,135.413116 
	C75.005760,135.109680 75.433441,134.806244 75.734383,133.902252 
M84.395813,127.351959 
	C83.580872,127.695518 82.765923,128.039078 81.950981,128.382629 
	C82.107903,128.688858 82.264824,128.995102 82.421745,129.301331 
	C83.178215,128.797394 83.934685,128.293457 84.395813,127.351959 
M127.298798,139.209717 
	C128.007828,139.166275 128.716858,139.122849 129.425888,139.079407 
	C129.381210,138.771179 129.336533,138.462967 129.291840,138.154739 
	C128.643173,138.306732 127.994507,138.458725 127.298798,139.209717 
M129.775101,127.609558 
	C130.120743,127.093338 130.466370,126.577126 130.812012,126.060905 
	C130.568756,125.959991 130.132187,125.741692 130.111404,125.775902 
	C129.827835,126.242859 129.601730,126.744728 129.775101,127.609558 
M109.972565,159.781860 
	C109.855812,160.328766 109.739059,160.875671 109.622307,161.422577 
	C109.912094,161.417587 110.451332,161.436966 110.454552,161.403976 
	C110.510033,160.836014 110.499420,160.261566 109.972565,159.781860 
M80.498032,128.692032 
	C80.121025,129.123306 79.732910,129.546494 79.396935,130.007675 
	C79.378441,130.033051 79.793304,130.374130 80.006447,130.568268 
	C80.287796,130.083725 80.569138,129.599182 80.498032,128.692032 
M87.068687,139.975052 
	C87.212463,140.057816 87.360504,140.210419 87.498703,140.201981 
	C87.616554,140.194778 87.839104,139.962631 87.816948,139.897934 
	C87.551971,139.124374 87.249908,138.363541 86.957550,137.599365 
	C86.706947,137.695969 86.456337,137.792557 86.205734,137.889160 
	C86.402733,138.427887 86.599739,138.966629 87.068687,139.975052 
M115.913391,137.755539 
	C115.701263,138.130402 115.489128,138.505264 115.277000,138.880112 
	C115.598358,138.955322 115.919716,139.030518 116.241066,139.105728 
	C116.290695,138.607925 116.340332,138.110138 115.913391,137.755539 
M74.678917,165.588989 
	C74.981888,165.362808 75.284859,165.136627 75.587837,164.910446 
	C75.401535,164.729660 75.215240,164.548874 75.028938,164.368088 
	C74.795013,164.651260 74.561096,164.934433 74.678917,165.588989 
M151.702988,145.571594 
	C151.991745,145.296082 152.280487,145.020554 152.569229,144.745026 
	C152.455017,144.625778 152.247864,144.396500 152.240005,144.403122 
	C151.935608,144.660278 151.649414,144.938965 151.702988,145.571594 
M79.702957,140.570251 
	C79.989571,140.296631 80.276176,140.023026 80.562790,139.749405 
	C80.449333,139.630798 80.243462,139.402817 80.235733,139.409348 
	C79.933434,139.664719 79.649223,139.941467 79.702957,140.570251 
M65.818909,146.139832 
	C65.193848,146.199860 64.568787,146.259888 63.943726,146.319916 
	C63.977947,146.538513 64.012161,146.757111 64.046379,146.975708 
	C64.749474,146.832306 65.452568,146.688919 65.818909,146.139832 
M87.645851,144.328720 
	C87.526505,144.577469 87.407166,144.826218 87.287819,145.074982 
	C87.526131,145.147171 87.764442,145.219376 88.002762,145.291565 
	C88.028763,144.949265 88.054764,144.606979 87.645851,144.328720 
M121.954964,147.314301 
	C122.098595,147.076538 122.242226,146.838776 122.385864,146.601013 
	C122.140831,146.513321 121.895798,146.425613 121.650764,146.337906 
	C121.609634,146.690781 121.568512,147.043671 121.954964,147.314301 
M127.468506,126.247604 
	C127.597374,125.853767 127.747452,125.464653 127.837036,125.062073 
	C127.854752,124.982460 127.639832,124.851082 127.532196,124.743576 
	C127.403511,125.137390 127.274826,125.531204 127.468506,126.247604 
M124.158180,124.954887 
	C124.412918,124.802940 124.797836,124.700737 124.880943,124.483215 
	C124.946587,124.311378 124.641228,123.997787 124.500641,123.747162 
	C124.359627,123.998085 124.218620,124.249016 124.158180,124.954887 
M141.730576,139.940140 
	C141.386902,139.964798 141.043213,139.989456 140.699554,140.014114 
	C140.771500,140.255463 140.843445,140.496811 140.915390,140.738159 
	C141.166077,140.618378 141.416763,140.498596 141.730576,139.940140 
M92.175903,124.026375 
	C92.271873,124.434875 92.367844,124.843384 92.463821,125.251892 
	C92.585152,125.162178 92.819138,125.056877 92.809235,124.985306 
	C92.751869,124.570610 92.637054,124.163849 92.175903,124.026375 
M167.959427,138.843369 
	C167.805817,138.587982 167.700653,138.196594 167.483597,138.119263 
	C167.302658,138.054794 166.990509,138.358658 166.736465,138.499390 
	C166.990829,138.640518 167.245178,138.781647 167.959427,138.843369 
M89.824554,125.973579 
	C89.728432,125.564774 89.632309,125.155975 89.536186,124.747162 
	C89.414696,124.836906 89.180389,124.942284 89.190300,125.013824 
	C89.247803,125.428841 89.362801,125.835892 89.824554,125.973579 
M92.731445,137.939713 
	C92.387222,137.964417 92.042999,137.989105 91.698784,138.013809 
	C91.770866,138.255539 91.842957,138.497269 91.915039,138.738998 
	C92.166153,138.619034 92.417267,138.499069 92.731445,137.939713 
M87.260063,126.814407 
	C87.375214,126.972809 87.490364,127.131218 87.605515,127.289619 
	C87.582115,127.069206 87.558723,126.848785 87.260063,126.814407 
M80.714622,161.840622 
	C80.563431,161.893021 80.412239,161.945404 80.261047,161.997787 
	C80.411980,162.048309 80.562912,162.098846 80.714622,161.840622 
M76.478661,161.683151 
	C76.478661,161.683151 76.578346,161.478867 76.578346,161.478867 
	C76.578346,161.478867 76.373405,161.518509 76.478661,161.683151 
M72.482986,163.588715 
	C72.482986,163.588715 72.415962,163.476852 72.482986,163.588715 
M155.592224,141.517639 
	C155.592224,141.517639 155.476959,141.587341 155.592224,141.517639 
M147.482941,135.591202 
	C147.482941,135.591202 147.413712,135.476608 147.482941,135.591202 
M112.517464,137.409164 
	C112.517464,137.409164 112.586273,137.523270 112.517464,137.409164 
M156.589279,138.517334 
	C156.589279,138.517334 156.476608,138.584869 156.589279,138.517334 
M172.482666,142.589279 
	C172.482666,142.589279 172.415131,142.476608 172.482666,142.589279 
M71.591003,145.517487 
	C71.591003,145.517487 71.476418,145.586639 71.591003,145.517487 
M68.590462,146.517380 
	C68.590462,146.517380 68.477104,146.585480 68.590462,146.517380 
M154.408615,146.482513 
	C154.408615,146.482513 154.522873,146.413696 154.408615,146.482513 
z"/>
<path fill="#CF0A5F" opacity="1.000000" stroke="none" 
	d="
M174.975815,63.069702 
	C177.893829,77.596779 172.541962,90.596718 167.310364,103.551979 
	C163.715302,112.454529 159.687057,121.182137 155.655823,130.439438 
	C149.049515,128.059509 142.759125,126.060562 136.678116,123.553719 
	C116.688652,115.313248 97.072945,116.885147 77.637932,125.368584 
	C74.447334,126.761284 71.280014,128.207321 66.730858,130.241928 
	C60.939236,115.205429 54.729233,100.475677 49.599281,85.378922 
	C44.289669,69.753456 48.472267,55.483891 58.539963,42.900291 
	C67.598091,31.578541 79.624100,24.625835 93.621582,21.453333 
	C117.185104,16.112705 138.888733,20.102304 157.777939,35.830677 
	C165.899246,42.593002 171.474884,51.136909 174.353851,61.966442 
	C174.567062,62.767582 174.725845,62.956860 174.975815,63.069702 
M136.021027,62.139919 
	C136.021027,60.750439 136.021027,59.360962 136.021027,57.610718 
	C135.133392,58.268337 134.566223,58.688541 133.377945,58.822212 
	C127.042030,53.066906 119.622101,50.128334 110.870781,49.436996 
	C110.945900,48.369930 111.021011,47.302860 111.833549,46.145763 
	C113.786644,45.255043 115.739738,44.364319 118.429863,43.137466 
	C113.776016,40.825176 110.210625,38.979069 106.582047,37.266838 
	C99.689415,34.014381 93.452255,36.404430 90.402992,43.412708 
	C89.878471,44.618233 89.460472,45.870098 88.376511,47.425949 
	C88.150352,49.074409 87.646675,50.742664 87.762489,52.366737 
	C87.940254,54.859745 88.544052,57.322372 88.385330,60.182571 
	C86.249565,63.721897 84.113800,67.261223 81.484215,71.392860 
	C74.881950,88.497276 85.384476,106.088348 97.045723,110.854645 
	C100.289932,111.880409 103.534134,112.906181 107.566559,114.127815 
	C112.105988,113.409348 116.645416,112.690880 121.942299,111.984077 
	C127.688942,110.960495 131.345749,106.869377 135.407211,103.176315 
	C145.223526,94.250450 146.092239,72.237717 136.021027,62.139919 
z"/>
<path fill="#CF0A5F" opacity="1.000000" stroke="none" 
	d="
M134.888947,169.986359 
	C127.288048,183.884171 119.687149,197.781982 111.642448,212.491257 
	C103.913361,198.573776 96.694893,185.575745 89.587830,172.021729 
	C89.799873,170.648041 89.900513,169.830338 90.001152,169.012650 
	C104.358971,168.945648 118.716782,168.878647 133.628036,169.116043 
	C134.355255,169.686630 134.591080,169.875275 134.888947,169.986359 
z"/>
<path fill="#DCDCDC" opacity="1.000000" stroke="none" 
	d="
M90.000000,154.978241 
	C123.440308,154.978195 156.380615,154.978195 189.320908,154.978195 
	C189.318085,155.469910 189.315262,155.961624 189.312439,156.453339 
	C145.762054,156.453339 102.211685,156.453339 58.661316,156.453339 
	C58.649944,155.961655 58.638573,155.469955 58.627201,154.978271 
	C68.918137,154.978271 79.209068,154.978271 90.000000,154.978241 
z"/>
<path fill="#FEFEFE" opacity="1.000000" stroke="none" 
	d="
M175.504776,163.178864 
	C174.395111,163.777710 173.486252,164.144257 172.577393,164.510803 
	C172.301300,162.935013 172.025192,161.359222 171.832626,160.260223 
	C176.609711,160.260223 180.625900,160.260223 184.272552,160.260223 
	C184.572479,161.718430 184.929977,163.456558 185.320343,165.354462 
	C182.667603,165.354462 179.714615,165.354462 176.546875,165.354462 
	C176.546875,164.677444 176.555984,163.791687 176.529343,162.906998 
	C176.527252,162.837189 176.271881,162.714645 176.142700,162.724777 
	C175.992126,162.736572 175.850876,162.867401 175.504776,163.178864 
z"/>
<path fill="#DBDCDB" opacity="1.000000" stroke="none" 
	d="
M137.854141,163.211685 
	C139.719437,162.919510 141.584747,162.627319 144.162964,162.223480 
	C145.540100,163.695755 153.968536,163.585068 156.618011,160.874374 
	C156.995712,162.362717 157.346115,163.743500 157.920059,166.005157 
	C150.921936,165.560135 144.364182,165.143097 137.678741,164.223602 
	C137.652100,163.551331 137.753113,163.381500 137.854141,163.211685 
z"/>
<path fill="#FEFEFE" opacity="1.000000" stroke="none" 
	d="
M59.870667,146.472107 
	C58.866505,146.475861 57.173893,146.112122 57.149345,145.658173 
	C56.938091,141.751755 57.027962,137.829041 57.027962,133.911209 
	C57.561062,133.861465 58.094162,133.811707 58.627262,133.761963 
	C59.070026,137.862259 59.512791,141.962540 59.870667,146.472107 
z"/>
<path fill="#FEFEFE" opacity="1.000000" stroke="none" 
	d="
M67.940323,163.057602 
	C65.741104,167.832596 62.145058,164.797226 59.032814,164.321869 
	C59.000992,163.998795 59.039158,163.961731 59.039158,163.961731 
	C60.039215,162.547287 61.039268,161.132843 61.916275,159.892441 
	C63.794910,160.637283 65.851738,161.452774 67.953461,162.634918 
	C67.998360,163.001556 67.940323,163.057602 67.940323,163.057602 
z"/>
<path fill="#FEFEFE" opacity="1.000000" stroke="none" 
	d="
M95.291901,163.965454 
	C95.883110,163.736954 96.841309,163.652466 96.997902,163.253433 
	C97.502472,161.967651 97.711639,160.565979 98.223183,158.417282 
	C99.955971,160.250153 100.976082,161.329178 101.913895,163.037933 
	C101.806992,164.132935 101.782394,164.598175 101.757805,165.063431 
	C99.818962,165.172806 97.880127,165.282181 95.635773,164.943817 
	C95.317474,164.319199 95.304688,164.142319 95.291901,163.965454 
z"/>
<path fill="#FEFEFE" opacity="1.000000" stroke="none" 
	d="
M73.997566,142.206284 
	C74.063812,140.488083 74.130058,139.196365 74.201714,137.799194 
	C77.622101,139.647995 78.087898,143.776199 74.819092,148.852280 
	C74.459702,146.131470 74.228638,144.382111 73.997566,142.206284 
z"/>
<path fill="#FEFEFE" opacity="1.000000" stroke="none" 
	d="
M163.257141,165.815460 
	C163.306427,163.654816 163.695770,161.558929 164.101685,159.373856 
	C166.332993,160.330307 168.051514,161.066956 170.787506,162.239746 
	C167.801834,163.751404 165.699524,164.815826 163.257141,165.815460 
z"/>
<path fill="#FEFEFE" opacity="1.000000" stroke="none" 
	d="
M132.447144,128.298035 
	C135.427048,126.406982 140.820755,127.692032 144.908539,131.909302 
	C139.932144,130.563965 136.259201,129.570999 132.447144,128.298035 
z"/>
<path fill="#FEFEFE" opacity="1.000000" stroke="none" 
	d="
M108.075317,123.003006 
	C106.456108,122.706909 105.267693,122.411179 104.079269,122.115440 
	C104.163673,121.674149 104.248070,121.232857 104.332466,120.791565 
	C107.141884,120.791565 109.951294,120.791565 112.760704,120.791565 
	C112.794884,121.322861 112.829071,121.854164 112.863251,122.385460 
	C111.410873,122.591431 109.958488,122.797409 108.075317,123.003006 
z"/>
<path fill="#FEFEFE" opacity="1.000000" stroke="none" 
	d="
M128.964294,160.988617 
	C129.676514,162.263382 130.870117,163.664963 130.548248,164.307938 
	C130.100616,165.202148 128.517410,165.527908 127.420280,166.097000 
	C127.039436,165.743042 126.658592,165.389084 126.277748,165.035126 
	C127.108383,163.615768 127.939011,162.196411 128.964294,160.988617 
z"/>
<path fill="#FEFEFE" opacity="1.000000" stroke="none" 
	d="
M116.255051,123.184189 
	C116.245506,122.314560 116.440536,121.727005 116.635567,121.139458 
	C118.622856,121.900772 120.610153,122.662079 122.597443,123.423393 
	C122.395966,123.934944 122.194489,124.446503 121.993011,124.958054 
	C120.148552,124.460793 118.304100,123.963531 116.255051,123.184189 
z"/>
<path fill="#FEFEFE" opacity="1.000000" stroke="none" 
	d="
M137.359375,163.947205 
	C135.855133,164.162369 134.542572,164.151459 133.230011,164.140533 
	C133.276993,163.341049 133.323959,162.541565 133.370941,161.742065 
	C134.828766,162.070251 136.286575,162.398453 137.799271,162.969162 
	C137.753113,163.381500 137.652100,163.551331 137.359375,163.947205 
z"/>
<path fill="#FEFEFE" opacity="1.000000" stroke="none" 
	d="
M87.972916,164.027481 
	C86.881248,164.531387 85.789581,165.035294 83.600723,166.045639 
	C84.632088,163.909943 84.951729,162.240219 85.956146,161.501221 
	C86.700096,160.953873 88.334595,161.616959 89.572380,161.740829 
	C89.153366,162.331818 88.734352,162.922791 88.156311,163.758469 
	C87.997276,164.003159 87.972916,164.027481 87.972916,164.027481 
z"/>
<path fill="#FEFEFE" opacity="1.000000" stroke="none" 
	d="
M178.766968,144.111420 
	C178.891586,145.350342 178.891586,146.256699 178.891586,147.914215 
	C176.980194,146.366837 175.662354,145.299973 174.344513,144.233109 
	C174.416000,143.892578 174.487488,143.552048 174.558960,143.211517 
	C175.920090,143.400620 177.281204,143.589737 178.766968,144.111420 
z"/>
<path fill="#FEFEFE" opacity="1.000000" stroke="none" 
	d="
M98.245224,124.096970 
	C96.990906,123.976357 96.085228,123.795998 95.179558,123.615639 
	C95.831253,123.129532 96.417671,122.446274 97.150024,122.203789 
	C98.233932,121.844887 99.421440,121.798866 101.072731,122.488953 
	C100.246445,123.005043 99.420166,123.521133 98.245224,124.096970 
z"/>
<path fill="#FEFEFE" opacity="1.000000" stroke="none" 
	d="
M109.998779,140.844147 
	C109.998779,138.658783 109.998779,136.897430 109.998779,135.136093 
	C110.223564,135.138779 110.448357,135.141464 110.673141,135.144150 
	C110.673141,139.136932 110.673141,143.129730 110.673141,147.122513 
	C110.448357,147.128128 110.223564,147.133759 109.998779,147.139374 
	C109.998779,145.182312 109.998779,143.225235 109.998779,140.844147 
z"/>
<path fill="#FEFEFE" opacity="1.000000" stroke="none" 
	d="
M188.166046,164.109756 
	C188.364441,162.396347 188.529495,161.027313 188.694550,159.658295 
	C189.064636,159.630295 189.434723,159.602310 189.804825,159.574310 
	C189.682159,161.496063 189.559494,163.417801 189.436829,165.339554 
	C189.002121,165.044418 188.567413,164.749283 188.166046,164.109756 
z"/>
<path fill="#FEFEFE" opacity="1.000000" stroke="none" 
	d="
M148.023544,138.976624 
	C148.477661,141.349716 148.907288,144.087204 149.336914,146.824692 
	C148.890961,146.861053 148.445023,146.897415 147.999069,146.933777 
	C147.999069,144.402863 147.999069,141.871948 148.023544,138.976624 
z"/>
<path fill="#FEFEFE" opacity="1.000000" stroke="none" 
	d="
M128.057922,149.944031 
	C129.735168,149.952576 131.412415,149.961105 133.541962,149.981903 
	C133.994247,149.994171 134.061966,150.060181 134.061966,150.060181 
	C132.066559,150.272141 130.071167,150.484085 128.040268,150.345718 
	C128.004776,149.995392 128.057922,149.944046 128.057922,149.944031 
z"/>
<path fill="#FEFEFE" opacity="1.000000" stroke="none" 
	d="
M119.051529,163.092697 
	C118.934502,163.878647 118.817474,164.664597 118.589035,166.198730 
	C117.164970,164.838257 116.222008,163.937408 114.355324,162.154083 
	C116.514610,162.570114 117.405846,162.741837 118.650803,162.964539 
	C119.004517,163.015549 119.051521,163.092697 119.051529,163.092697 
z"/>
<path fill="#FEFEFE" opacity="1.000000" stroke="none" 
	d="
M182.002838,140.691681 
	C182.074249,140.003937 182.111511,139.677170 182.237061,139.388870 
	C182.262619,139.330185 182.799484,139.414230 182.799713,139.435806 
	C182.826706,141.866959 182.825119,144.298431 181.999878,146.802643 
	C181.999878,144.890518 181.999878,142.978394 182.002838,140.691681 
z"/>
<path fill="#FEFEFE" opacity="1.000000" stroke="none" 
	d="
M58.981651,164.017059 
	C58.144730,162.852982 57.327148,161.670654 56.509567,160.488327 
	C57.067467,160.223251 57.625366,159.958176 58.183270,159.693085 
	C58.459396,160.870438 58.735523,162.047775 59.025406,163.593430 
	C59.039158,163.961731 59.000992,163.998795 58.981651,164.017059 
z"/>
<path fill="#878887" opacity="1.000000" stroke="none" 
	d="
M102.109802,165.052948 
	C101.782394,164.598175 101.806992,164.132935 101.912766,163.323608 
	C103.489037,162.260620 104.984131,161.541718 106.479218,160.822830 
	C106.667168,161.155075 106.855110,161.487335 107.043053,161.819595 
	C105.515968,162.893890 103.988884,163.968185 102.109802,165.052948 
z"/>
<path fill="#FEFEFE" opacity="1.000000" stroke="none" 
	d="
M118.975449,162.980972 
	C119.276505,162.447540 119.606621,161.948669 119.936745,161.449814 
	C120.594238,162.706467 121.251740,163.963135 121.909233,165.219788 
	C121.572823,165.372742 121.236412,165.525696 120.899994,165.678650 
	C120.449768,164.934662 119.999535,164.190689 119.300415,163.269714 
	C119.051521,163.092697 119.004517,163.015549 118.975449,162.980972 
z"/>
<path fill="#F4F5F4" opacity="1.000000" stroke="none" 
	d="
M135.732300,138.091064 
	C134.873505,138.895004 134.001205,139.378998 133.128891,139.863007 
	C132.914688,139.330795 132.700485,138.798584 132.486282,138.266373 
	C133.563782,138.101288 134.641296,137.936203 135.732300,138.091064 
z"/>
<path fill="#FEFEFE" opacity="1.000000" stroke="none" 
	d="
M158.052353,143.919052 
	C160.741394,144.895248 160.741394,144.895248 158.105286,147.262405 
	C158.051422,146.291077 158.007721,145.503311 157.978973,144.353394 
	C157.993896,143.991257 158.052353,143.919052 158.052353,143.919052 
z"/>
<path fill="#FEFEFE" opacity="1.000000" stroke="none" 
	d="
M170.663757,147.541687 
	C170.230621,146.728149 170.067780,145.773483 169.904953,144.818832 
	C170.430557,144.828949 170.956146,144.839050 171.481735,144.849167 
	C171.299179,145.699631 171.116623,146.550095 170.663757,147.541687 
z"/>
<path fill="#FEFEFE" opacity="1.000000" stroke="none" 
	d="
M69.974670,139.026596 
	C68.893852,138.926331 67.813034,138.826050 66.732216,138.725784 
	C66.791344,138.309265 66.850479,137.892746 66.909615,137.476227 
	C67.910645,137.755798 68.911682,138.035355 69.956039,138.657883 
	C69.999359,139.000839 69.974670,139.026596 69.974670,139.026596 
z"/>
<path fill="#C9C9C9" opacity="1.000000" stroke="none" 
	d="
M95.032219,163.871414 
	C95.304688,164.142319 95.317474,164.319199 95.354401,164.761139 
	C94.856087,165.094803 94.333641,165.163391 93.407410,165.118500 
	C93.003632,165.005051 92.971504,164.977325 92.971504,164.977325 
	C92.778648,164.038849 92.585785,163.100372 92.791985,162.342468 
	C93.403358,162.773605 93.662773,162.957901 93.969284,163.075928 
	C94.237038,163.309753 94.504784,163.543564 95.032219,163.871414 
z"/>
<path fill="#F5F6F5" opacity="1.000000" stroke="none" 
	d="
M90.266190,144.046509 
	C90.955360,144.179153 91.644341,144.617050 92.333313,145.054947 
	C92.016701,145.462311 91.700081,145.869675 91.383469,146.277039 
	C91.010979,145.635284 90.638489,144.993530 90.266190,144.046509 
z"/>
<path fill="#FEFEFE" opacity="1.000000" stroke="none" 
	d="
M158.336914,137.957184 
	C158.985962,138.534256 159.435699,139.339584 159.885452,140.144897 
	C159.473557,140.300369 159.061646,140.455826 158.649750,140.611298 
	C158.479050,139.802673 158.308334,138.994064 158.336914,137.957184 
z"/>
<path fill="#FEFEFE" opacity="1.000000" stroke="none" 
	d="
M68.027435,162.973587 
	C68.649590,163.509674 69.254639,164.063080 69.796837,164.672409 
	C69.821373,164.699982 69.277657,165.233185 68.998611,165.530869 
	C68.662727,164.931168 68.326843,164.331482 67.965645,163.394684 
	C67.940323,163.057602 67.998360,163.001556 68.027435,162.973587 
z"/>
<path fill="#DCDDDC" opacity="1.000000" stroke="none" 
	d="
M164.060150,141.051697 
	C164.050369,141.809906 164.040588,142.568130 164.030609,143.672836 
	C164.030411,144.019333 164.025421,144.115433 164.025421,144.115433 
	C163.782639,143.107895 163.539871,142.100357 163.652786,141.049011 
	C164.008469,141.005188 164.060165,141.051697 164.060150,141.051697 
z"/>
<path fill="#F5F6F5" opacity="1.000000" stroke="none" 
	d="
M96.691681,141.452057 
	C97.464706,141.384949 98.014023,141.534943 98.563332,141.684937 
	C98.359482,142.046585 98.155632,142.408234 97.951775,142.769882 
	C97.457176,142.402969 96.962570,142.036057 96.691681,141.452057 
z"/>
<path fill="#DCDDDC" opacity="1.000000" stroke="none" 
	d="
M170.575378,141.320343 
	C169.293411,141.717178 168.127075,141.822220 166.960754,141.927261 
	C166.945496,141.627701 166.930252,141.328125 166.914993,141.028564 
	C168.173676,141.028564 169.432343,141.028564 170.575378,141.320343 
z"/>
<path fill="#FEFEFE" opacity="1.000000" stroke="none" 
	d="
M64.012428,138.456421 
	C64.344414,139.111954 64.373337,139.764267 64.402260,140.416595 
	C64.125999,140.413269 63.849743,140.409927 63.573486,140.406601 
	C63.618778,139.755478 63.664070,139.104340 64.012428,138.456421 
z"/>
<path fill="#F4F5F4" opacity="1.000000" stroke="none" 
	d="
M127.960182,147.998123 
	C127.760635,147.164612 127.561096,146.331100 127.361557,145.497574 
	C127.802238,145.444122 128.242920,145.390656 128.683594,145.337204 
	C128.642075,146.211517 128.600555,147.085815 128.277420,147.982407 
	C127.995827,148.004684 127.960182,147.998123 127.960182,147.998123 
z"/>
<path fill="#FEFEFE" opacity="1.000000" stroke="none" 
	d="
M153.940735,140.505981 
	C153.571915,139.922287 153.243896,139.030716 152.915878,138.139145 
	C153.222534,138.053192 153.529175,137.967239 153.835831,137.881287 
	C153.884384,138.653549 153.932953,139.425827 153.940735,140.505981 
z"/>
<path fill="#FEFEFE" opacity="1.000000" stroke="none" 
	d="
M75.797752,134.202530 
	C75.433441,134.806244 75.005760,135.109680 74.578079,135.413116 
	C74.462234,134.964371 74.346375,134.515610 74.230515,134.066864 
	C74.731804,134.011993 75.233093,133.957123 75.797752,134.202530 
z"/>
<path fill="#FEFEFE" opacity="1.000000" stroke="none" 
	d="
M84.543488,127.570740 
	C83.934685,128.293457 83.178215,128.797394 82.421745,129.301331 
	C82.264824,128.995102 82.107903,128.688858 81.950981,128.382629 
	C82.765923,128.039078 83.580872,127.695518 84.543488,127.570740 
z"/>
<path fill="#F4F5F4" opacity="1.000000" stroke="none" 
	d="
M127.322311,138.910217 
	C127.994507,138.458725 128.643173,138.306732 129.291840,138.154739 
	C129.336533,138.462967 129.381210,138.771179 129.425888,139.079407 
	C128.716858,139.122849 128.007828,139.166275 127.322311,138.910217 
z"/>
<path fill="#FEFEFE" opacity="1.000000" stroke="none" 
	d="
M129.568283,127.423782 
	C129.601730,126.744728 129.827835,126.242859 130.111404,125.775902 
	C130.132187,125.741692 130.568756,125.959991 130.812012,126.060905 
	C130.466370,126.577126 130.120743,127.093338 129.568283,127.423782 
z"/>
<path fill="#FEFEFE" opacity="1.000000" stroke="none" 
	d="
M110.237930,159.735199 
	C110.499420,160.261566 110.510033,160.836014 110.454552,161.403976 
	C110.451332,161.436966 109.912094,161.417587 109.622299,161.422577 
	C109.739059,160.875671 109.855812,160.328766 110.237930,159.735199 
z"/>
<path fill="#FEFEFE" opacity="1.000000" stroke="none" 
	d="
M80.674255,128.903351 
	C80.569138,129.599182 80.287796,130.083725 80.006454,130.568268 
	C79.793304,130.374130 79.378441,130.033051 79.396935,130.007675 
	C79.732910,129.546494 80.121025,129.123306 80.674255,128.903351 
z"/>
<path fill="#FEFEFE" opacity="1.000000" stroke="none" 
	d="
M133.960632,149.960922 
	C134.272125,149.144485 134.617233,148.361313 134.962341,147.578125 
	C135.282150,147.735291 135.601959,147.892456 135.921753,148.049606 
	C135.505539,148.678360 135.089310,149.307098 134.367523,149.998016 
	C134.061966,150.060181 133.994247,149.994171 133.960632,149.960922 
z"/>
<path fill="#CC0255" opacity="1.000000" stroke="none" 
	d="
M89.647919,168.930908 
	C89.900513,169.830338 89.799873,170.648041 89.491379,171.696320 
	C89.287239,170.900986 89.290962,169.875076 89.647919,168.930908 
z"/>
<path fill="#FEFEFE" opacity="1.000000" stroke="none" 
	d="
M86.932709,139.740204 
	C86.599739,138.966629 86.402733,138.427887 86.205734,137.889160 
	C86.456337,137.792557 86.706947,137.695969 86.957550,137.599365 
	C87.249908,138.363541 87.551971,139.124374 87.816948,139.897934 
	C87.839104,139.962631 87.616554,140.194778 87.498703,140.201981 
	C87.360504,140.210419 87.212463,140.057816 86.932709,139.740204 
z"/>
<path fill="#FEFEFE" opacity="1.000000" stroke="none" 
	d="
M116.151680,137.683929 
	C116.340332,138.110138 116.290695,138.607925 116.241074,139.105713 
	C115.919716,139.030518 115.598358,138.955322 115.276993,138.880127 
	C115.489128,138.505264 115.701263,138.130402 116.151680,137.683929 
z"/>
<path fill="#CECECE" opacity="1.000000" stroke="none" 
	d="
M74.503052,165.403290 
	C74.561096,164.934433 74.795013,164.651260 75.028938,164.368088 
	C75.215240,164.548874 75.401535,164.729660 75.587837,164.910446 
	C75.284859,165.136627 74.981888,165.362808 74.503052,165.403290 
z"/>
<path fill="#FEFEFE" opacity="1.000000" stroke="none" 
	d="
M151.531891,145.393204 
	C151.649414,144.938965 151.935608,144.660278 152.240005,144.403122 
	C152.247864,144.396500 152.455017,144.625778 152.569229,144.745026 
	C152.280487,145.020554 151.991745,145.296082 151.531891,145.393204 
z"/>
<path fill="#FEFEFE" opacity="1.000000" stroke="none" 
	d="
M79.532791,140.392822 
	C79.649223,139.941467 79.933434,139.664719 80.235733,139.409348 
	C80.243462,139.402817 80.449333,139.630798 80.562790,139.749405 
	C80.276176,140.023026 79.989571,140.296631 79.532791,140.392822 
z"/>
<path fill="#FEFEFE" opacity="1.000000" stroke="none" 
	d="
M70.012177,138.988495 
	C70.530479,139.289780 71.035965,139.603439 71.541458,139.917099 
	C71.357986,140.127518 71.174507,140.337936 70.991028,140.548340 
	C70.681267,140.229446 70.371498,139.910538 70.018204,139.309113 
	C69.974670,139.026596 69.999359,139.000839 70.012177,138.988495 
z"/>
<path fill="#FEFEFE" opacity="1.000000" stroke="none" 
	d="
M164.067429,144.050293 
	C164.438751,144.981506 164.773056,145.881744 165.107361,146.781967 
	C164.843399,146.865143 164.579437,146.948303 164.315475,147.031479 
	C164.211899,146.274887 164.108322,145.518311 164.015076,144.438568 
	C164.025421,144.115433 164.030411,144.019333 164.067429,144.050293 
z"/>
<path fill="#FEFEFE" opacity="1.000000" stroke="none" 
	d="
M80.347992,163.963379 
	C80.787773,164.287079 81.227547,164.610779 81.667328,164.934479 
	C81.259598,165.187042 80.851868,165.439606 80.342529,165.196732 
	C80.276611,164.455322 80.312302,164.209351 80.347992,163.963379 
z"/>
<path fill="#FEFEFE" opacity="1.000000" stroke="none" 
	d="
M128.000153,148.022293 
	C128.009354,148.463440 128.014221,148.886978 128.038513,149.627289 
	C128.057922,149.944046 128.004776,149.995392 127.977859,150.021393 
	C127.758293,149.390976 127.565636,148.734543 127.666580,148.038116 
	C127.960182,147.998123 127.995827,148.004684 128.000153,148.022293 
z"/>
<path fill="#FEFEFE" opacity="1.000000" stroke="none" 
	d="
M65.987282,146.342682 
	C65.452568,146.688919 64.749474,146.832306 64.046379,146.975708 
	C64.012161,146.757111 63.977947,146.538513 63.943726,146.319916 
	C64.568787,146.259888 65.193848,146.199860 65.987282,146.342682 
z"/>
<path fill="#FEFEFE" opacity="1.000000" stroke="none" 
	d="
M93.978699,162.774979 
	C93.662773,162.957901 93.403358,162.773605 93.081070,162.310486 
	C93.148865,161.698349 93.326630,161.298752 93.504387,160.899170 
	C93.665627,161.424118 93.826874,161.949081 93.978699,162.774979 
z"/>
<path fill="#FEFEFE" opacity="1.000000" stroke="none" 
	d="
M87.863312,144.296692 
	C88.054764,144.606979 88.028763,144.949265 88.002762,145.291565 
	C87.764442,145.219376 87.526131,145.147171 87.287827,145.074982 
	C87.407166,144.826218 87.526505,144.577469 87.863312,144.296692 
z"/>
<path fill="#FEFEFE" opacity="1.000000" stroke="none" 
	d="
M121.741173,147.355423 
	C121.568512,147.043671 121.609634,146.690781 121.650772,146.337906 
	C121.895798,146.425613 122.140831,146.513321 122.385864,146.601013 
	C122.242226,146.838776 122.098595,147.076538 121.741173,147.355423 
z"/>
<path fill="#FEFEFE" opacity="1.000000" stroke="none" 
	d="
M123.961853,164.971039 
	C124.025368,164.245422 124.088882,163.519821 124.152405,162.794205 
	C124.361191,162.819672 124.569977,162.845123 124.778755,162.870590 
	C124.682732,163.473480 124.586708,164.076370 124.244934,164.840912 
	C123.999191,165.002548 123.961853,164.971039 123.961853,164.971039 
z"/>
<path fill="#FEFEFE" opacity="1.000000" stroke="none" 
	d="
M127.307327,126.086311 
	C127.274826,125.531204 127.403511,125.137390 127.532196,124.743576 
	C127.639832,124.851082 127.854752,124.982460 127.837036,125.062073 
	C127.747452,125.464653 127.597374,125.853767 127.307327,126.086311 
z"/>
<path fill="#FEFEFE" opacity="1.000000" stroke="none" 
	d="
M124.117889,124.727417 
	C124.218620,124.249016 124.359627,123.998085 124.500641,123.747162 
	C124.641228,123.997787 124.946587,124.311378 124.880943,124.483215 
	C124.797836,124.700737 124.412918,124.802940 124.117889,124.727417 
z"/>
<path fill="#FEFEFE" opacity="1.000000" stroke="none" 
	d="
M141.699005,140.159470 
	C141.416763,140.498596 141.166077,140.618378 140.915405,140.738159 
	C140.843445,140.496811 140.771500,140.255463 140.699554,140.014114 
	C141.043213,139.989456 141.386902,139.964798 141.699005,140.159470 
z"/>
<path fill="#FEFEFE" opacity="1.000000" stroke="none" 
	d="
M92.358780,123.890396 
	C92.637054,124.163849 92.751869,124.570610 92.809235,124.985306 
	C92.819138,125.056877 92.585152,125.162178 92.463821,125.251892 
	C92.367844,124.843384 92.271873,124.434875 92.358780,123.890396 
z"/>
<path fill="#F9F9F9" opacity="1.000000" stroke="none" 
	d="
M167.729492,138.883057 
	C167.245178,138.781647 166.990829,138.640518 166.736465,138.499390 
	C166.990509,138.358658 167.302658,138.054794 167.483597,138.119263 
	C167.700653,138.196594 167.805817,138.587982 167.729492,138.883057 
z"/>
<path fill="#FEFEFE" opacity="1.000000" stroke="none" 
	d="
M89.641449,126.109604 
	C89.362801,125.835892 89.247803,125.428841 89.190300,125.013824 
	C89.180389,124.942284 89.414696,124.836906 89.536194,124.747162 
	C89.632309,125.155975 89.728432,125.564774 89.641449,126.109604 
z"/>
<path fill="#FEFEFE" opacity="1.000000" stroke="none" 
	d="
M92.699913,138.159424 
	C92.417267,138.499069 92.166153,138.619034 91.915039,138.738998 
	C91.842957,138.497269 91.770866,138.255539 91.698776,138.013794 
	C92.042999,137.989105 92.387222,137.964417 92.699913,138.159424 
z"/>
<path fill="#F5F6F5" opacity="1.000000" stroke="none" 
	d="
M97.069595,146.071060 
	C96.908829,146.495407 96.748062,146.919769 96.587303,147.344116 
	C96.575958,146.968262 96.564606,146.592392 96.782913,146.113266 
	C97.012581,146.009995 97.069603,146.071060 97.069595,146.071060 
z"/>
<path fill="#FEFEFE" opacity="1.000000" stroke="none" 
	d="
M87.397690,126.721390 
	C87.558723,126.848785 87.582115,127.069206 87.605515,127.289619 
	C87.490364,127.131218 87.375214,126.972809 87.397690,126.721390 
z"/>
<path fill="#CECECE" opacity="1.000000" stroke="none" 
	d="
M80.714233,161.994995 
	C80.562912,162.098846 80.411980,162.048309 80.261047,161.997787 
	C80.412239,161.945404 80.563431,161.893021 80.714233,161.994995 
z"/>
<path fill="#FEFEFE" opacity="1.000000" stroke="none" 
	d="
M88.010971,163.993042 
	C88.146088,164.426727 88.267509,164.870499 88.388924,165.314285 
	C88.264938,165.043808 88.140953,164.773331 87.994942,164.265167 
	C87.972916,164.027481 87.997276,164.003159 88.010971,163.993042 
z"/>
<path fill="#F5F6F5" opacity="1.000000" stroke="none" 
	d="
M96.986435,145.977402 
	C97.421402,145.827209 97.882515,145.709625 98.343620,145.592026 
	C98.077629,145.731766 97.811638,145.871506 97.307625,146.041168 
	C97.069603,146.071060 97.012581,146.009995 96.986435,145.977402 
z"/>
<path fill="#CECECE" opacity="1.000000" stroke="none" 
	d="
M76.426033,161.600830 
	C76.373405,161.518509 76.578346,161.478867 76.578346,161.478867 
	C76.578346,161.478867 76.478661,161.683151 76.426033,161.600830 
z"/>
<path fill="#CC0255" opacity="1.000000" stroke="none" 
	d="
M134.983673,169.686111 
	C134.591080,169.875275 134.355255,169.686630 134.088318,169.210541 
	C134.356247,169.129028 134.717331,169.257446 134.983673,169.686111 
z"/>
<path fill="#FEFEFE" opacity="1.000000" stroke="none" 
	d="
M72.449478,163.532776 
	C72.415962,163.476852 72.482986,163.588715 72.449478,163.532776 
z"/>
<path fill="#FEFEFE" opacity="1.000000" stroke="none" 
	d="
M174.950836,62.899750 
	C174.725845,62.956860 174.567062,62.767582 174.548676,62.318546 
	C174.757095,62.305889 174.866409,62.504082 174.950836,62.899750 
z"/>
<path fill="#FEFEFE" opacity="1.000000" stroke="none" 
	d="
M124.014893,165.021271 
	C123.918770,165.061188 123.806946,165.082382 123.828484,165.037308 
	C123.961853,164.971039 123.999191,165.002548 124.014893,165.021271 
z"/>
<path fill="#C9C9C9" opacity="1.000000" stroke="none" 
	d="
M93.017487,165.021301 
	C92.908691,165.061707 92.786049,165.085861 92.817451,165.043671 
	C92.971504,164.977325 93.003632,165.005051 93.017487,165.021301 
z"/>
<path fill="#CECECE" opacity="1.000000" stroke="none" 
	d="
M79.998161,163.972900 
	C80.312302,164.209351 80.276611,164.455322 80.127472,165.058228 
	C79.892120,164.937592 79.770226,164.460007 79.998161,163.972900 
z"/>
<path fill="#FEFEFE" opacity="1.000000" stroke="none" 
	d="
M155.534592,141.552490 
	C155.476959,141.587341 155.592224,141.517639 155.534592,141.552490 
z"/>
<path fill="#FEFEFE" opacity="1.000000" stroke="none" 
	d="
M147.448334,135.533905 
	C147.413712,135.476608 147.482941,135.591202 147.448334,135.533905 
z"/>
<path fill="#FEFEFE" opacity="1.000000" stroke="none" 
	d="
M112.551865,137.466217 
	C112.586273,137.523270 112.517464,137.409164 112.551865,137.466217 
z"/>
<path fill="#FEFEFE" opacity="1.000000" stroke="none" 
	d="
M156.532944,138.551102 
	C156.476608,138.584869 156.589279,138.517334 156.532944,138.551102 
z"/>
<path fill="#DCDDDC" opacity="1.000000" stroke="none" 
	d="
M163.984924,140.979599 
	C164.108063,140.947464 164.254745,140.940918 164.230789,140.993042 
	C164.060165,141.051697 164.008469,141.005188 163.984924,140.979599 
z"/>
<path fill="#FEFEFE" opacity="1.000000" stroke="none" 
	d="
M172.448898,142.532944 
	C172.415131,142.476608 172.482666,142.589279 172.448898,142.532944 
z"/>
<path fill="#FEFEFE" opacity="1.000000" stroke="none" 
	d="
M157.958221,144.020996 
	C157.815994,143.879639 157.709457,143.708527 157.602921,143.537415 
	C157.703476,143.575729 157.804031,143.614059 157.978470,143.785706 
	C158.052353,143.919052 157.993896,143.991257 157.958221,144.020996 
z"/>
<path fill="#FEFEFE" opacity="1.000000" stroke="none" 
	d="
M71.533707,145.552063 
	C71.476418,145.586639 71.591003,145.517487 71.533707,145.552063 
z"/>
<path fill="#FEFEFE" opacity="1.000000" stroke="none" 
	d="
M68.533783,146.551422 
	C68.477104,146.585480 68.590462,146.517380 68.533783,146.551422 
z"/>
<path fill="#FEFEFE" opacity="1.000000" stroke="none" 
	d="
M154.465744,146.448105 
	C154.522873,146.413696 154.408615,146.482513 154.465744,146.448105 
z"/>
<path fill="#FDFDFD" opacity="1.000000" stroke="none" 
	d="
M111.034668,50.223404 
	C119.622101,50.128334 127.042030,53.066906 133.720612,59.362682 
	C133.294632,62.931042 133.454376,67.602875 131.575104,68.664192 
	C126.824188,71.347244 128.965515,74.612358 129.043732,78.196320 
	C128.694870,78.944328 128.543320,79.393158 128.250549,80.003662 
	C127.987480,80.441795 127.977295,80.722313 127.964401,81.245865 
	C127.857803,81.661278 127.865562,81.837723 127.656189,82.229912 
	C127.266190,83.225357 127.093323,84.005066 126.688736,84.995621 
	C126.318291,85.801941 126.179565,86.397408 125.936241,87.143845 
	C125.831650,87.294815 125.877846,87.659210 125.622620,87.874939 
	C125.224907,88.731064 125.082436,89.371475 124.719765,90.263969 
	C123.984932,91.970627 123.470299,93.425194 122.707962,95.068901 
	C122.290665,95.841759 122.121086,96.425484 121.756935,97.198013 
	C121.315491,98.052315 121.068626,98.717804 120.546158,99.559540 
	C120.158394,100.148842 120.046227,100.561890 119.968140,100.973801 
	C120.002213,100.972664 119.952858,100.925598 119.727554,101.122437 
	C119.273125,101.860825 119.043991,102.402382 118.588432,103.053261 
	C118.191238,103.623718 118.020470,104.084854 117.581497,104.694016 
	C117.142563,105.206436 116.971848,105.570831 116.522202,106.089661 
	C114.829773,106.829514 113.416267,107.414932 111.994888,107.665527 
	C111.721092,106.989914 111.455177,106.649132 111.232758,106.080154 
	C111.233917,105.538353 111.121552,105.252243 110.956161,104.658768 
	C110.728714,103.969589 110.484238,103.615288 110.252876,102.928207 
	C110.089836,101.731071 109.913681,100.866730 109.739975,99.728935 
	C109.503868,98.966805 109.265312,98.478127 109.063004,97.609955 
	C108.951050,96.488243 108.802864,95.746002 108.685989,94.731140 
	C108.496063,93.965218 108.274811,93.471939 108.093765,92.577606 
	C107.982025,91.118752 107.830070,90.060951 107.722275,88.727783 
	C107.556595,87.949577 107.346764,87.446732 107.179123,86.519203 
	C107.080322,84.396744 106.939331,82.698967 106.827362,80.672470 
	C106.293602,79.712036 105.730820,79.080322 105.249985,78.351494 
	C105.331940,78.254372 105.212265,78.030159 105.210754,77.645782 
	C104.825310,76.949722 104.441368,76.638046 103.971909,76.228951 
	C103.798988,75.973129 103.674744,75.852722 103.290596,75.460716 
	C102.361488,74.979759 101.655426,74.808395 100.897278,74.313446 
	C99.880348,72.326172 98.915512,70.662476 98.114441,68.680542 
	C103.995369,66.996498 107.126740,63.151333 108.649826,57.682625 
	C109.349693,55.169739 110.234001,52.708218 111.034668,50.223404 
z"/>
<path fill="#3A3A3A" opacity="1.000000" stroke="none" 
	d="
M110.939140,104.993645 
	C111.121552,105.252243 111.233917,105.538353 111.249840,106.412842 
	C111.483215,107.315918 111.742989,107.658127 112.002762,108.000351 
	C113.416267,107.414932 114.829773,106.829514 116.799026,105.948761 
	C117.519753,105.284286 117.684723,104.915131 117.849701,104.545975 
	C118.020470,104.084854 118.191238,103.623718 118.871132,102.913284 
	C119.571129,102.084526 119.761993,101.505058 119.952858,100.925598 
	C119.952858,100.925598 120.002213,100.972664 120.229065,100.784546 
	C120.577866,100.192055 120.699806,99.787666 120.821754,99.383286 
	C121.068626,98.717804 121.315491,98.052315 122.016167,97.020081 
	C122.631874,96.062141 122.793777,95.470955 122.955673,94.879761 
	C123.470299,93.425194 123.984932,91.970627 124.991013,90.060028 
	C125.614250,88.955742 125.746048,88.307472 125.877846,87.659210 
	C125.877846,87.659210 125.831650,87.294815 126.183762,86.947113 
	C126.664062,85.994530 126.792267,85.389648 126.920456,84.784775 
	C127.093323,84.005066 127.266190,83.225357 127.838486,82.162323 
	C128.325424,81.785759 128.504852,81.645790 128.485153,81.607033 
	C128.376541,81.393341 128.219315,81.204353 128.078751,81.006897 
	C127.977295,80.722313 127.987480,80.441795 128.665527,79.879242 
	C129.557785,79.136703 129.893845,78.680237 130.594604,78.258667 
	C131.642334,78.555214 132.325363,78.816887 133.104919,79.274399 
	C133.376358,79.715431 133.605392,79.889328 133.941620,80.319763 
	C133.628082,81.434471 133.261505,82.221344 132.742767,83.097969 
	C132.533890,83.289848 132.403580,83.440498 132.433334,83.485619 
	C132.555771,83.671288 132.726822,83.824890 132.895706,84.364456 
	C131.904999,87.496201 130.898590,90.253784 129.663086,93.199142 
	C129.299500,93.952095 129.165024,94.517258 129.035461,95.404724 
	C128.699646,96.483841 128.358917,97.240662 127.764793,98.176979 
	C127.355247,98.942177 127.199089,99.527893 127.030251,100.475960 
	C125.073318,104.549683 123.129082,108.261047 121.184845,111.972412 
	C116.645416,112.690880 112.105988,113.409348 107.170456,113.874344 
	C106.774345,113.620872 106.878235,113.327507 106.823685,113.052437 
	C106.509315,112.519272 106.249504,112.261177 105.750877,111.783981 
	C105.038330,110.373772 104.564590,109.182671 104.244423,107.877701 
	C104.225708,107.505745 104.053421,107.247650 103.639374,106.728043 
	C102.759888,104.463394 102.122162,102.460266 101.259911,99.751900 
	C99.958153,102.355598 99.038094,104.195862 97.834999,106.218666 
	C97.407303,107.039650 97.262650,107.678078 97.093964,108.667450 
	C96.902611,109.455460 96.735291,109.892548 96.567963,110.329636 
	C85.384476,106.088348 74.881950,88.497276 82.063026,71.076111 
	C83.909126,70.599350 85.176414,70.439331 86.488487,70.698456 
	C87.091805,75.744270 87.650345,80.370941 88.143417,85.411575 
	C88.126724,86.953529 88.175507,88.081505 88.177269,89.634567 
	C87.831078,93.442604 87.531898,96.825554 87.232719,100.208511 
	C87.483383,100.324638 87.734055,100.440773 87.984718,100.556900 
	C89.361816,98.036858 90.738914,95.516823 92.467422,92.949814 
	C93.519783,91.565178 94.220734,90.227516 94.946869,88.923584 
	C94.972061,88.957314 94.887901,88.959846 95.160278,88.781784 
	C95.566261,88.198853 95.699867,87.793991 95.867859,87.067444 
	C96.939384,84.829834 97.976509,82.913895 99.256195,80.804840 
	C99.614098,80.220612 99.729439,79.829514 99.801178,79.314438 
	C99.757584,79.190468 99.947945,79.009247 100.209679,78.827667 
	C100.602142,78.041962 100.732872,77.437820 100.881821,76.877853 
	C100.900047,76.922020 100.805153,76.910789 101.159134,76.812538 
	C102.179962,76.399628 102.846802,76.084969 103.513641,75.770309 
	C103.674744,75.852722 103.798988,75.973129 104.030655,76.594490 
	C104.520699,77.381683 104.866486,77.705925 105.212265,78.030159 
	C105.212265,78.030159 105.331940,78.254372 105.226242,78.707359 
	C105.679810,79.773964 106.239075,80.387573 106.798332,81.001190 
	C106.939331,82.698967 107.080322,84.396744 106.939468,86.659393 
	C106.997780,87.817230 107.337952,88.410194 107.678116,89.003151 
	C107.830070,90.060951 107.982025,91.118752 107.865128,92.721558 
	C107.949081,93.845634 108.301872,94.424706 108.654671,95.003769 
	C108.802864,95.746002 108.951050,96.488243 108.835999,97.761292 
	C108.961014,98.862206 109.349274,99.432289 109.737534,100.002380 
	C109.913681,100.866730 110.089836,101.731071 110.245331,103.260788 
	C110.462822,104.281990 110.700981,104.637817 110.939140,104.993645 
z"/>
<path fill="#F5B18F" opacity="1.000000" stroke="none" 
	d="
M110.952728,49.830200 
	C110.234001,52.708218 109.349693,55.169739 108.649826,57.682625 
	C107.126740,63.151333 103.995369,66.996498 97.855675,68.891777 
	C96.497536,71.027428 95.561943,72.633591 94.004028,75.308128 
	C94.004028,71.697395 94.004028,69.356804 94.029869,66.662781 
	C92.359497,64.138855 90.663284,61.968372 88.967064,59.797890 
	C88.544052,57.322372 87.940254,54.859745 87.762489,52.366737 
	C87.646675,50.742664 88.150352,49.074409 88.721008,47.602364 
	C89.169868,48.630493 89.274223,49.482212 89.467049,51.055870 
	C91.781799,47.503941 93.658142,44.624741 95.351807,42.025852 
	C100.901932,43.509922 105.999031,44.872860 111.096130,46.235794 
	C111.021011,47.302860 110.945900,48.369930 110.952728,49.830200 
z"/>
<path fill="#FFFFFF" opacity="1.000000" stroke="none" 
	d="
M129.892181,93.011368 
	C130.898590,90.253784 131.904999,87.496201 132.968994,84.119995 
	C132.982712,83.336983 132.938828,83.172600 132.894928,83.008217 
	C133.261505,82.221344 133.628082,81.434471 134.000183,80.072166 
	C133.950043,79.336517 133.894379,79.176285 133.892471,78.660324 
	C138.516174,74.207748 139.185471,69.790359 135.185959,64.861549 
	C134.981186,64.609192 135.756210,63.561756 136.075058,62.884502 
	C146.092239,72.237717 145.223526,94.250450 135.407211,103.176315 
	C131.345749,106.869377 127.688942,110.960495 121.563568,111.978241 
	C123.129082,108.261047 125.073318,104.549683 127.290833,100.302582 
	C127.715462,99.177063 127.866829,98.587280 128.018188,97.997490 
	C128.358917,97.240662 128.699646,96.483841 129.278397,95.221138 
	C129.641663,94.147293 129.766922,93.579330 129.892181,93.011368 
z"/>
<path fill="#934C3D" opacity="1.000000" stroke="none" 
	d="
M111.464844,46.190781 
	C105.999031,44.872860 100.901932,43.509922 95.351807,42.025852 
	C93.658142,44.624741 91.781799,47.503941 89.467049,51.055870 
	C89.274223,49.482212 89.169868,48.630493 89.029388,47.439667 
	C89.460472,45.870098 89.878471,44.618233 90.402992,43.412708 
	C93.452255,36.404430 99.689415,34.014381 106.582047,37.266838 
	C110.210625,38.979069 113.776016,40.825176 118.429863,43.137466 
	C115.739738,44.364319 113.786644,45.255043 111.464844,46.190781 
z"/>
<path fill="#F3B28F" opacity="1.000000" stroke="none" 
	d="
M136.048035,62.512211 
	C135.756210,63.561756 134.981186,64.609192 135.185959,64.861549 
	C139.185471,69.790359 138.516174,74.207748 133.683899,78.657700 
	C133.421555,79.010803 133.008377,79.078560 133.008377,79.078560 
	C132.325363,78.816887 131.642334,78.555214 130.438934,78.177299 
	C129.686783,78.030853 129.460953,77.976212 129.241028,77.897133 
	C128.965515,74.612358 126.824188,71.347244 131.575104,68.664192 
	C133.454376,67.602875 133.294632,62.931042 134.031158,59.505951 
	C134.566223,58.688541 135.133392,58.268337 136.021027,57.610718 
	C136.021027,59.360962 136.021027,60.750439 136.048035,62.512211 
z"/>
<path fill="#FDFAFA" opacity="1.000000" stroke="none" 
	d="
M88.676193,59.990231 
	C90.663284,61.968372 92.359497,64.138855 93.660156,66.708900 
	C90.990974,68.165421 88.717339,69.222366 86.443703,70.279312 
	C85.176414,70.439331 83.909126,70.599350 82.309937,70.779953 
	C84.113800,67.261223 86.249565,63.721897 88.676193,59.990231 
z"/>
<path fill="#F4F1F2" opacity="1.000000" stroke="none" 
	d="
M104.090851,107.991570 
	C104.564590,109.182671 105.038330,110.373772 105.778519,112.070679 
	C106.322731,112.826820 106.600487,113.077164 106.878235,113.327507 
	C106.878235,113.327507 106.774345,113.620872 106.776344,113.776413 
	C103.534134,112.906181 100.289932,111.880409 96.806839,110.592140 
	C96.735291,109.892548 96.902611,109.455460 97.353539,108.466599 
	C97.797440,107.288582 97.957733,106.662346 98.118034,106.036118 
	C99.038094,104.195862 99.958153,102.355598 101.259911,99.751900 
	C102.122162,102.460266 102.759888,104.463394 103.629631,106.991562 
	C103.938049,107.674919 104.014450,107.833244 104.090851,107.991570 
z"/>
<path fill="#E8E0E2" opacity="1.000000" stroke="none" 
	d="
M86.488487,70.698456 
	C88.717339,69.222366 90.990974,68.165421 93.634315,67.062347 
	C94.004028,69.356804 94.004028,71.697395 94.004028,75.308128 
	C95.561943,72.633591 96.497536,71.027428 97.691895,69.210022 
	C98.915512,70.662476 99.880348,72.326172 100.896019,74.694000 
	C100.899612,75.902351 100.852379,76.406570 100.805153,76.910789 
	C100.805153,76.910789 100.900047,76.922020 100.642059,77.076393 
	C100.238693,77.823593 100.093315,78.416420 99.947945,79.009247 
	C99.947945,79.009247 99.757584,79.190468 99.540512,79.495377 
	C99.220169,80.199501 99.116905,80.598732 99.013634,80.997955 
	C97.976509,82.913895 96.939384,84.829834 95.599915,87.250748 
	C95.161003,88.157097 95.024452,88.558472 94.887901,88.959846 
	C94.887901,88.959846 94.972061,88.957314 94.707199,89.087921 
	C93.980949,89.552528 93.519562,89.886528 92.710686,90.014526 
	C92.791527,85.937126 93.219849,82.065727 93.648178,78.194328 
	C93.359756,78.119743 93.071335,78.045166 92.782906,77.970581 
	C91.822853,80.313766 90.862801,82.656944 89.620438,84.999939 
	C88.961716,84.999031 88.585297,84.998314 88.208885,84.997604 
	C87.650345,80.370941 87.091805,75.744270 86.488487,70.698456 
z"/>
<path fill="#3B3B3B" opacity="1.000000" stroke="none" 
	d="
M107.722275,88.727783 
	C107.337952,88.410194 106.997780,87.817230 106.897278,87.084076 
	C107.346764,87.446732 107.556595,87.949577 107.722275,88.727783 
z"/>
<path fill="#3B3B3B" opacity="1.000000" stroke="none" 
	d="
M108.685989,94.731140 
	C108.301872,94.424706 107.949081,93.845634 107.824921,93.122604 
	C108.274811,93.471939 108.496063,93.965218 108.685989,94.731140 
z"/>
<path fill="#3B3B3B" opacity="1.000000" stroke="none" 
	d="
M109.739975,99.728935 
	C109.349274,99.432289 108.961014,98.862206 108.799759,98.140778 
	C109.265312,98.478127 109.503868,98.966805 109.739975,99.728935 
z"/>
<path fill="#3B3B3B" opacity="1.000000" stroke="none" 
	d="
M106.827362,80.672470 
	C106.239075,80.387573 105.679810,79.773964 105.144295,78.804482 
	C105.730820,79.080322 106.293602,79.712036 106.827362,80.672470 
z"/>
<path fill="#3B3B3B" opacity="1.000000" stroke="none" 
	d="
M101.159134,76.812538 
	C100.852379,76.406570 100.899612,75.902351 100.948105,75.017578 
	C101.655426,74.808395 102.361488,74.979759 103.290596,75.460724 
	C102.846802,76.084969 102.179962,76.399628 101.159134,76.812538 
z"/>
<path fill="#3B3B3B" opacity="1.000000" stroke="none" 
	d="
M125.622620,87.874939 
	C125.746048,88.307472 125.614250,88.955742 125.211212,89.807938 
	C125.082436,89.371475 125.224907,88.731064 125.622620,87.874939 
z"/>
<path fill="#3B3B3B" opacity="1.000000" stroke="none" 
	d="
M126.688744,84.995621 
	C126.792267,85.389648 126.664062,85.994530 126.288345,86.796143 
	C126.179565,86.397408 126.318291,85.801941 126.688744,84.995621 
z"/>
<path fill="#3B3B3B" opacity="1.000000" stroke="none" 
	d="
M129.043732,78.196320 
	C129.460953,77.976212 129.686783,78.030853 130.074219,78.142410 
	C129.893845,78.680237 129.557785,79.136703 128.806747,79.717575 
	C128.543320,79.393158 128.694870,78.944328 129.043732,78.196320 
z"/>
<path fill="#3B3B3B" opacity="1.000000" stroke="none" 
	d="
M122.707962,95.068901 
	C122.793777,95.470955 122.631874,96.062141 122.210747,96.831268 
	C122.121086,96.425484 122.290665,95.841759 122.707962,95.068901 
z"/>
<path fill="#3B3B3B" opacity="1.000000" stroke="none" 
	d="
M119.727554,101.122437 
	C119.761993,101.505058 119.571129,102.084526 119.097565,102.803963 
	C119.043991,102.402382 119.273125,101.860825 119.727554,101.122437 
z"/>
<path fill="#3B3B3B" opacity="1.000000" stroke="none" 
	d="
M105.210754,77.645782 
	C104.866486,77.705925 104.520699,77.381683 104.116180,76.691910 
	C104.441368,76.638046 104.825310,76.949722 105.210754,77.645782 
z"/>
<path fill="#3B3B3B" opacity="1.000000" stroke="none" 
	d="
M111.994888,107.665520 
	C111.742989,107.658127 111.483215,107.315918 111.206352,106.641029 
	C111.455177,106.649132 111.721092,106.989914 111.994888,107.665520 
z"/>
<path fill="#3B3B3B" opacity="1.000000" stroke="none" 
	d="
M117.581490,104.694008 
	C117.684723,104.915131 117.519753,105.284286 117.077957,105.794327 
	C116.971848,105.570831 117.142563,105.206436 117.581490,104.694008 
z"/>
<path fill="#3B3B3B" opacity="1.000000" stroke="none" 
	d="
M110.956161,104.658768 
	C110.700981,104.637817 110.462822,104.281990 110.232208,103.593582 
	C110.484238,103.615288 110.728714,103.969589 110.956161,104.658768 
z"/>
<path fill="#3B3B3B" opacity="1.000000" stroke="none" 
	d="
M120.546158,99.559540 
	C120.699806,99.787666 120.577866,100.192055 120.194992,100.785690 
	C120.046227,100.561890 120.158394,100.148842 120.546158,99.559540 
z"/>
<path fill="#3B3B3B" opacity="1.000000" stroke="none" 
	d="
M127.964401,81.245865 
	C128.219315,81.204353 128.376541,81.393341 128.485153,81.607033 
	C128.504852,81.645790 128.325424,81.785759 128.055618,81.946594 
	C127.865562,81.837723 127.857803,81.661278 127.964401,81.245865 
z"/>
<path fill="#CB105F" opacity="1.000000" stroke="none" 
	d="
M89.902740,85.000130 
	C90.862801,82.656944 91.822853,80.313766 92.782906,77.970581 
	C93.071335,78.045166 93.359756,78.119743 93.648178,78.194328 
	C93.219849,82.065727 92.791527,85.937126 92.691360,90.316536 
	C92.718353,91.548622 92.417183,92.272705 92.116013,92.996780 
	C90.738914,95.516823 89.361816,98.036858 87.984718,100.556900 
	C87.734055,100.440773 87.483383,100.324638 87.232719,100.208511 
	C87.531898,96.825554 87.831078,93.442604 88.404190,89.386307 
	C89.086327,87.475349 89.494530,86.237740 89.902740,85.000130 
z"/>
<path fill="#3B3B3B" opacity="1.000000" stroke="none" 
	d="
M92.467422,92.949814 
	C92.417183,92.272705 92.718353,91.548622 93.038849,90.522537 
	C93.519562,89.886528 93.980949,89.552528 94.682007,89.054192 
	C94.220734,90.227516 93.519783,91.565178 92.467422,92.949814 
z"/>
<path fill="#E6E0E1" opacity="1.000000" stroke="none" 
	d="
M89.620430,84.999939 
	C89.494530,86.237740 89.086327,87.475349 88.451202,88.961227 
	C88.175507,88.081505 88.126724,86.953529 88.143417,85.411575 
	C88.585297,84.998314 88.961716,84.999031 89.620430,84.999939 
z"/>
<path fill="#3B3B3B" opacity="1.000000" stroke="none" 
	d="
M129.663086,93.199142 
	C129.766922,93.579330 129.641663,94.147293 129.273468,94.898842 
	C129.165024,94.517258 129.299500,93.952095 129.663086,93.199142 
z"/>
<path fill="#3B3B3B" opacity="1.000000" stroke="none" 
	d="
M97.834999,106.218666 
	C97.957733,106.662346 97.797440,107.288582 97.377571,108.115662 
	C97.262650,107.678078 97.407303,107.039650 97.834999,106.218666 
z"/>
<path fill="#3B3B3B" opacity="1.000000" stroke="none" 
	d="
M100.209679,78.827667 
	C100.093315,78.416420 100.238693,77.823593 100.623833,77.032227 
	C100.732872,77.437820 100.602142,78.041962 100.209679,78.827667 
z"/>
<path fill="#3B3B3B" opacity="1.000000" stroke="none" 
	d="
M127.764793,98.176979 
	C127.866829,98.587280 127.715462,99.177063 127.303513,99.940231 
	C127.199089,99.527893 127.355247,98.942177 127.764793,98.176979 
z"/>
<path fill="#3B3B3B" opacity="1.000000" stroke="none" 
	d="
M133.104919,79.274399 
	C133.008377,79.078560 133.421555,79.010803 133.630127,79.013428 
	C133.894379,79.176285 133.950043,79.336517 133.947128,79.744339 
	C133.605392,79.889328 133.376358,79.715431 133.104919,79.274399 
z"/>
<path fill="#3B3B3B" opacity="1.000000" stroke="none" 
	d="
M106.823685,113.052437 
	C106.600487,113.077164 106.322731,112.826820 106.017334,112.289780 
	C106.249504,112.261177 106.509315,112.519272 106.823685,113.052437 
z"/>
<path fill="#3B3B3B" opacity="1.000000" stroke="none" 
	d="
M104.244423,107.877701 
	C104.014450,107.833244 103.938049,107.674919 103.871391,107.253082 
	C104.053421,107.247650 104.225708,107.505745 104.244423,107.877701 
z"/>
<path fill="#3B3B3B" opacity="1.000000" stroke="none" 
	d="
M99.256195,80.804840 
	C99.116905,80.598732 99.220169,80.199501 99.584106,79.619339 
	C99.729439,79.829514 99.614098,80.220612 99.256195,80.804840 
z"/>
<path fill="#3B3B3B" opacity="1.000000" stroke="none" 
	d="
M95.160278,88.781784 
	C95.024452,88.558472 95.161003,88.157097 95.565514,87.572418 
	C95.699867,87.793991 95.566261,88.198853 95.160278,88.781784 
z"/>
<path fill="#3B3B3B" opacity="1.000000" stroke="none" 
	d="
M132.742767,83.097969 
	C132.938828,83.172600 132.982712,83.336983 132.953308,83.745827 
	C132.726822,83.824890 132.555771,83.671288 132.433334,83.485619 
	C132.403580,83.440498 132.533890,83.289848 132.742767,83.097969 
z"/>
</svg>